# xmcd
#
# Track frame offsets:
#	150
#	17815
#	34787
#	54475
#	74522
#	94002
#	111017
#	127530
#	147092
#	166810
#
# Disc length: 2482 seconds
#
# Revision: 1
# Processed by: cddbd v1.5.2PL0 Copyright (c) Steve Scherf et al.
# Submitted via: audiograbber 1.83.01
#
DISCID=7a09b00a
DTITLE=Shania Twain - The songs of Shania Twain
DYEAR=1900
DGENRE=
TTITLE0=Don't be stupid
TTITLE1=Love gets me everytime
TTITLE2=Whose bed have your boots been under
TTITLE3=The woman in me
TTITLE4=Any man of mine
TTITLE5=Don't be stupid w/vocals
TTITLE6=Love gets me everytime w/vocals
TTITLE7=Whose bed have your boots been under w/ vocals
TTITLE8=The woman in me w/vocals
TTITLE9=Any man of mine w/vocals
EXTD=
EXTT0=
EXTT1=
EXTT2=
EXTT3=
EXTT4=
EXTT5=
EXTT6=
EXTT7=
EXTT8=
EXTT9=
PLAYORDER=
